<?xml version="1.0" standalone="no"?>
<svg xmlns="http://www.w3.org/2000/svg" viewBox="0 0 158 76" width="158" height="76"><g fill="#8ba1ef" color="#8ba1ef" transform="translate(56.985 0) scale(0.44) "><g transform="translate(1.542, 0.276)"><svg width="100.0" height="100.0" x="-1.542" y="-0.276" viewBox="-1.542 -0.276 100 100"><path d="M28.896,17.783c1.038-0.495,1.563,0.635,2.474,0.544c0.752-0.076,1.421-0.489,2,0.02c0.6,0.527,1.157,0.914,2.004,1.144  c2.841,0.777,2.348-3.551,4.208-1.555c-0.472,1.621-1.724,1.937-3.911,1.875c-0.049,0.287,0.168,0.303,0.179,0.531  c-0.555,0.083-0.723-0.221-0.884-0.531c-0.057,1.65,2.73,1.985,5.129,1.769c-0.493-0.214-1.023-0.393-1.238-0.886  c0.15-0.378,0.435-0.626,1.06-0.53c-0.076-0.218-0.227-0.361-0.529-0.352c1.406-0.349,5.016-2.492,5.483,0  c0.305-0.285,0.384-0.796,0.352-1.417c-0.343-0.361-0.552-0.862-1.238-0.883c0.32-0.508,0.667-0.987,1.063-1.415  c-0.311-0.301-0.979,0.546-1.769,0.354c2.335-4.781,7.017,1.858,1.63,9.938c-3.813,5.718-9.865,16.094-8.817,25.244  c0.878,7.665,5.123,11.08,13.384,12.402c11.734,1.879,1.068,16.038,5.922,13.218c0.205-0.119,11.168,4.97,6.691,7.271  c-17.844,9.169-28.329-1.891-27.224-2.349c1.911-0.791,4.133,3.606,15.858,9.947c8.096,4.379,15.799,8.479,31.811,6.473  c8.798-1.103,12.268-6.679,11.4-15.601c-0.178,3.627-7.28,7.402-10.1,8.179c-0.261,0.071,3.061,1.621,2.851,1.797  c-3.346,2.788-20.297,0.246-28.129-5.659c-10.925-8.24-17.332-14.354-22.592-14.354c-18.294,0-13.381,17.082-3.522,21.928  c9.748,4.792,24.005,4.095,32.869,1.534c14.869-4.296,16.998-7.855,16.521-20.487c-0.33-8.758-10.935-10.388-13.878-14.704  c-2.479-3.636-6.774-7.081-7.137-10.033c-1.868-15.23-10.013-2.936-10.013-14.032c0-6.115,2.548-9.026,3.202-15.285  c0.099-0.73,0.767-0.93,1.112-0.148c0,0,0.184-1.327-0.52-1.74c-0.299-2.208,0.937-2.588,1.667-1.06  c-0.205-2.598-0.591-3.29-2.621-3.495c-0.982-2.275,1.272-2.275,2.222-1.094c-0.22-2.618-2.149-3.021-4.451-2.312  c-1.923-1.562,1.938-1.96,3.357-1.194C53.897,7.28,49.591,8.657,46.461,9.2c3.237-1.378,6.521-4.15,4.955-9.2  c0.046,1.022-0.066,1.65-0.179,2.478c-0.641,4.767-7.224,2.729-9.727,5.836c-0.942,0.624-1.767,0.675-2.832,1.061  c-0.977,0.355-1.925,0.739-2.651,1.417c-0.783,0.727-0.743,2.103-1.415,3.007c-0.668,0.901-2.002,1.055-2.83,1.769  c0.82,1.666,2.276,2.227,4.335,2.069c-0.789-0.504-0.875-0.341-1.151-1.361c0.318-0.25,1.042,0.601,1.769,0.53  c0.83-0.023-0.365-0.402,0-1.062c0.523-0.295,1.06-1.091,2.474-0.886c1.297,0.359,0.494,1.343,0.494,1.343  c-0.562-0.819-2.364-0.403-2.564,1.219c-0.235,1.919-2.182,2.129-3.875,0.165c-0.314-0.368-1.893-2.584-4.24-0.931  c1.09-0.417,2.388-0.463,2.674,0.983C30.44,17.884,30.097,16.616,28.896,17.783z M37.703,12.542  c-0.354,0.704-1.386,0.734-1.946,1.238C35.805,12.88,37.294,12.493,37.703,12.542z"></path><path d="M64.319,52.967c0,0-5.758-9.336,4.304-7.68c13.539,2.228,9.74,9.332,9.74,9.332c4.584,1.956,9.626,7.104,5.165,14.704  c8.547,2.81-1.967,20.769-1.967,20.769c18.279-13.168,16.881-38.056,12.827-48.359c-7.352-18.687-20.641-27.524-31.018-30.346  c-0.904-0.246-0.961-1.294-2.038-1.682c-0.709-0.256-0.277-2.792-2.549-0.603c-3.346,0.743-0.785,3.428-0.785,3.428  c-0.206-1.115-0.536-1.941,1.198-2.272c1.109-0.211,1.499,0.618,1.145,3.249c-0.317,2.36,1.101,4.692,1.464,5.814  c0.414,1.277,6.879,20.818-3.603,21.401c0,0-2.537-0.182-4.284-0.619c-1.746-0.438,0.571-2.075-4.488-2.803  c0,0,2.205,25.297,11.583,30.701C63.056,69.177,61.012,52.037,64.319,52.967z"></path><path d="M41.354,56.768c0,0-6.734-4.993-15.568,0.101c-11.887,6.854-6.246,8.537-6.246,8.537c-3.602,3.446-6.507,10.04,0.345,15.581  c-7.01,5.641,9.073,18.425,9.073,18.425C7.212,93.527-0.162,70.062,0.002,58.99C0.3,38.911,9.625,25.959,18.342,19.664  c0.76-0.548,0.444-1.55,1.314-2.292c0.574-0.489-0.724-2.71,2.173-1.462c3.393-0.482,1.943,2.932,1.943,2.932  c-0.2-1.116-0.182-2.006-1.921-1.705c-1.113,0.193-1.186,1.106,0.073,3.444c1.128,2.097,0.624,4.779,0.678,5.957  c0.063,1.341-2.003,23.463,8.012,20.316c5.629-2.456,7.147-1.528,10.468-6.856c0.952-1.528,3.658-2.726,7.375-1.275  C48.458,38.723,56.841,45.384,41.354,56.768z"></path><path d="M61.345,65.647c-6.443,2.479-13.08-2.726-18.275-0.619s-7.499,5.947-6.879,9.417c0.619,3.47,27.137,15.522,29.987,15.646"></path><path d="M62.708,75.482c5.006-4.755-1.205-11.218,2.93-15.003c4.134-3.787,8.591-4.218,11.458-2.167s5.784,21.103,4.672,23.73"></path><path d="M31.426,31.606c-0.254-1.109,0.51-0.943,1.067,0.005c0.083-2.313-1.533-2.408-3.553-1.489  c1.598,1.919,0.141,4.529,1.753,3.998c-0.027,0.017-0.058,0.039-0.086,0.055c0.628-0.264,1.258-0.528,1.885-0.793  C32.235,32.705,31.893,32.069,31.426,31.606z"></path><path d="M33.341,52.637c-1.778-6.051,0.787-10.827,0.899-12.474c1.231-0.804,1.074,0.019,2.158,0  c1.442-1.302,1.094-3.089,0.619-4.75c-0.146,0.737-0.791,2.277-1.529,2.148c-1.452-1.836-0.866-2.313-1.248-4.337  c-0.863-0.314-0.689-0.723-1.582-0.847c-0.255-0.129-1.92,0.765-3.159,0.599c-0.597-0.768-0.228-0.917,0.113-0.729  c-0.173-0.115-0.043-2.688-2.282,0.472c1.101,1.2,0.063,1.083,1.797,1.826c-0.089-0.006-0.208,0.694,0.167,1.456  c0.375,0.762,1.375,2.542,1.568,2.943c-0.461,3.503-2.918,9.568-3.552,11.709c-0.991,5.123-0.311,8.675,2.065,11.318  c0,0-0.141-2.077,2.35-2.479c3.034-0.487,16.181,2.223,17.706,0.826C61.993,48.811,34.347,51.61,33.341,52.637z"></path><path d="M34.691,32.517c0,0,2.063,0.998,1.5,2.617c1.086-0.417,0.867-3.983-2.448-4.957c-0.835,1.556-2.85,1.982-1.642,3.5  c-0.029-0.011,1.22,1.021,0.867,0.661c0.588,0.346,1.028,1.319,1.614,1.664C33.419,33.482,34.247,32.976,34.691,32.517z"></path></svg></g></g><path fill="#3052ce" fill-rule="nonzero" d="M3.60 1.66L3.60 1.20L11.40 1.20L11.40 1.66L10.08 1.66L10.08 12.02Q10.08 15.26 8.62 16.74Q7.15 18.22 4.22 18.22L4.22 18.22Q2.28 18.22 1.14 17.47Q0 16.73 0 15.38L0 15.38Q0 14.35 0.58 13.76Q1.15 13.18 2.15 13.18Q3.14 13.18 3.64 13.68Q4.13 14.18 4.13 14.89Q4.13 15.60 3.86 16.32L3.86 16.32L2.93 16.32Q2.71 16.68 2.71 17.00Q2.71 17.33 3.04 17.56Q3.36 17.78 3.89 17.78L3.89 17.78Q4.85 17.78 5.12 17.03Q5.40 16.27 5.40 13.75L5.40 13.75L5.40 1.66L3.60 1.66ZM12.38 1.66L12.38 1.20L19.70 1.20L19.70 1.66L18.38 1.66L18.38 9.24L18.58 9.19L25.34 1.66L23.45 1.66L23.45 1.20L27.65 1.20L27.65 1.66L26.21 1.66L22.08 6.26L27.84 17.54L29.14 17.54L29.14 18L21.43 18L21.43 17.54L22.56 17.54L18.60 9.89L18.38 9.94L18.38 17.54L19.70 17.54L19.70 18L12.38 18L12.38 17.54L13.70 17.54L13.70 1.66L12.38 1.66ZM41.76 23.42L41.76 23.42Q42.94 23.42 43.57 22.30Q44.21 21.17 44.21 19.51Q44.21 17.86 42.94 16.15L42.94 16.15Q41.11 18.24 37.92 18.24Q34.73 18.24 32.84 17.16Q30.96 16.08 30.96 13.75L30.96 13.75Q30.96 12.14 31.82 11.16Q32.69 10.18 34.73 9.72L34.73 9.72Q32.62 7.80 32.62 5.53Q32.62 3.26 34.21 2.10Q35.81 0.94 38.18 0.94Q40.56 0.94 41.75 1.80Q42.94 2.66 42.94 4.13L42.94 4.13Q42.94 6.67 39.07 8.02L39.07 8.02Q39.55 8.33 40.82 9.12L40.82 9.12Q43.49 10.85 44.59 11.90L44.59 11.90Q44.95 10.20 45 8.40L45 8.40L43.10 8.40L43.10 7.92L47.28 7.92L47.28 8.40L45.60 8.40Q45.55 10.66 45.14 12.46L45.14 12.46Q46.18 13.61 46.70 14.66Q47.23 15.72 47.23 17.33L47.23 17.33Q47.23 19.92 45.41 21.96Q43.58 24 41.26 24L41.26 24Q39.70 24 38.83 23.35Q37.97 22.70 37.97 21.70Q37.97 20.69 38.53 20.12Q39.10 19.56 39.96 19.56L39.96 19.56Q41.88 19.56 41.88 21.29L41.88 21.29Q41.88 21.65 41.74 22.15L41.74 22.15L40.90 22.15Q40.46 23.42 41.76 23.42ZM38.50 17.62L38.50 17.62Q41.04 17.62 42.53 15.65L42.53 15.65Q41.42 14.50 39.43 13.15L39.43 13.15Q36 10.90 35.06 10.08L35.06 10.08Q34.70 10.85 34.70 13.20Q34.70 15.55 35.64 16.58Q36.58 17.62 38.50 17.62ZM38.06 1.44Q37.15 1.44 36.50 2.00Q35.86 2.57 35.86 3.79Q35.86 5.02 36.43 5.81Q37.01 6.60 38.64 7.73L38.64 7.73Q39.65 7.20 39.90 6.46Q40.15 5.71 40.15 4.27L40.15 4.27Q40.15 1.44 38.06 1.44L38.06 1.44ZM57.07 17.54L58.78 17.54L57.02 12.36L52.27 12.36L50.42 17.54L52.22 17.54L52.22 18L48.55 18L48.55 17.54L49.68 17.54L55.80 1.06L57.77 1.06L63.82 17.54L64.92 17.54L64.92 18L57.07 18L57.07 17.54ZM56.83 11.83L54.74 5.54L52.49 11.83L56.83 11.83ZM66.14 18.24L65.86 18.24L65.86 13.94L66.14 13.94Q66.77 16.03 67.82 16.87Q68.88 17.71 70.46 17.71L70.46 17.71Q72.91 17.71 72.91 16.15L72.91 16.15Q72.91 15.48 72.31 15.14L72.31 15.14Q71.38 14.62 69.91 14.33L69.91 14.33Q68.28 13.90 67.18 13.18L67.18 13.18Q65.86 12.31 65.86 10.44Q65.86 8.57 67.01 7.45Q68.16 6.34 70.08 6.34L70.08 6.34Q71.26 6.34 72.50 6.89L72.50 6.89Q72.96 7.08 73.20 7.08Q73.44 7.08 73.61 6.91Q73.78 6.74 74.02 6.29L74.02 6.29L74.28 6.29L74.28 9.96L73.99 9.96Q72.77 6.84 70.20 6.84L70.20 6.84Q69.07 6.84 68.52 7.24Q67.97 7.63 67.97 8.23L67.97 8.23Q67.97 8.59 68.14 8.80Q68.30 9 68.40 9.10Q68.50 9.19 68.71 9.30Q68.93 9.41 69.07 9.47Q69.22 9.53 69.52 9.62Q69.82 9.72 69.96 9.74L69.96 9.74Q71.59 10.15 72.31 10.45Q73.03 10.75 73.68 11.18L73.68 11.18Q75 12.10 75 14.12Q75 16.15 73.80 17.20Q72.60 18.24 70.51 18.24L70.51 18.24Q69.02 18.24 67.63 17.54L67.63 17.54Q67.34 17.35 67.18 17.35L67.18 17.35Q66.65 17.35 66.14 18.24L66.14 18.24ZM83.47 13.27L83.47 13.27L83.47 11.23Q83.47 8.90 83.22 7.84Q82.97 6.77 82.06 6.77L82.06 6.77Q81.53 6.77 81.20 7.07Q80.88 7.37 80.74 8.06L80.74 8.06Q80.52 9.14 80.52 11.35L80.52 11.35L80.52 13.22Q80.52 15.84 80.68 16.37Q80.83 16.90 81.00 17.23L81.00 17.23Q81.26 17.81 82.03 17.81L82.03 17.81Q82.97 17.81 83.26 16.73L83.26 16.73Q83.47 15.96 83.47 13.27ZM81.98 18.24Q78.98 18.24 77.45 16.70Q75.91 15.17 75.91 12.30Q75.91 9.43 77.56 7.88Q79.20 6.34 82.18 6.34Q85.15 6.34 86.62 7.76Q88.08 9.19 88.08 12.12L88.08 12.12Q88.08 18.24 81.98 18.24L81.98 18.24ZM95.47 6.77L95.47 6.77Q94.42 6.77 93.96 7.92Q93.50 9.07 93.50 11.74L93.50 11.74L93.50 12.98Q93.50 15.36 94.03 16.39Q94.56 17.42 95.98 17.42Q97.39 17.42 98.23 16.46Q99.07 15.50 99.31 14.28L99.31 14.28L99.74 14.33Q99.29 16.39 98.06 17.30L98.06 17.30Q96.82 18.24 94.63 18.24L94.63 18.24Q91.85 18.24 90.36 16.74Q88.87 15.24 88.87 12.35Q88.87 9.46 90.56 7.90Q92.26 6.34 95.28 6.34L95.28 6.34Q97.42 6.34 98.54 7.16Q99.67 7.99 99.67 9.24Q99.67 10.49 99.13 11.06Q98.59 11.64 97.64 11.64Q96.70 11.64 96.12 11.14Q95.54 10.63 95.54 9.65L95.54 9.65Q95.54 9.22 95.66 8.78L95.66 8.78L96.46 8.78Q96.62 8.30 96.62 7.92L96.62 7.92Q96.62 6.77 95.47 6.77ZM103.87 4.92Q102.60 4.92 102.06 4.27Q101.52 3.62 101.52 2.66Q101.52 1.70 102.11 1.08Q102.70 0.46 103.90 0.46Q105.10 0.46 105.72 1.02Q106.34 1.58 106.34 2.63Q106.34 3.67 105.74 4.30Q105.14 4.92 103.87 4.92ZM100.25 7.01L100.25 6.58L106.13 6.58L106.13 17.57L107.47 17.57L107.47 18L100.34 18L100.34 17.57L101.66 17.57L101.66 7.01L100.25 7.01ZM113.71 12.36L113.71 12.36L114.41 12.36L114.41 10.51Q114.41 8.23 114.16 7.45Q113.90 6.67 113.18 6.67L113.18 6.67Q112.75 6.67 112.40 6.90Q112.06 7.13 112.06 7.52Q112.06 7.92 112.20 8.33L112.20 8.33L112.80 8.33Q112.99 8.83 112.99 9.54Q112.99 10.25 112.39 10.76Q111.79 11.28 110.88 11.28L110.88 11.28Q108.82 11.28 108.82 9.29L108.82 9.29Q108.82 6.34 113.83 6.34L113.83 6.34Q116.69 6.34 117.78 7.31Q118.87 8.28 118.87 10.87L118.87 10.87L118.87 15.74Q118.87 16.99 119.57 16.99L119.57 16.99Q120.38 16.99 120.53 14.52L120.53 14.52L120.89 14.54Q120.79 16.66 120.10 17.45Q119.40 18.24 117.82 18.24L117.82 18.24Q114.94 18.24 114.50 16.46L114.50 16.46Q114.19 17.38 113.57 17.81Q112.94 18.24 111.74 18.24L111.74 18.24Q108.19 18.24 108.19 15.34L108.19 15.34Q108.19 13.63 109.55 13.00Q110.90 12.36 113.71 12.36ZM112.75 15.31Q112.75 16.56 112.88 16.92Q113.02 17.28 113.39 17.28Q113.76 17.28 114.08 16.67Q114.41 16.06 114.41 14.98L114.41 14.98L114.41 12.74L114.24 12.74Q112.75 12.74 112.75 14.93L112.75 14.93L112.75 15.31ZM126.00 13.03Q126.00 15.55 126.26 16.38Q126.53 17.21 127.24 17.21Q127.94 17.21 128.46 16.58Q128.98 15.96 128.98 14.74L128.98 14.74L128.98 9.50Q128.98 8.47 128.57 7.75Q128.16 7.03 127.37 7.03Q126.58 7.03 126.29 8.09Q126.00 9.14 126.00 11.78L126.00 11.78L126.00 13.03ZM134.62 18L129.29 18L129.02 16.32Q128.21 18.24 125.71 18.24L125.71 18.24Q123.65 18.24 122.51 16.75Q121.37 15.26 121.37 12.31L121.37 12.31Q121.37 6.34 126.12 6.34L126.12 6.34Q128.23 6.34 128.90 7.51L128.90 7.51L128.90 0.43L127.44 0.43L127.44 0L133.44 0L133.44 17.57L134.62 17.57L134.62 18ZM142.99 13.27L142.99 13.27L142.99 11.23Q142.99 8.90 142.74 7.84Q142.49 6.77 141.58 6.77L141.58 6.77Q141.05 6.77 140.72 7.07Q140.40 7.37 140.26 8.06L140.26 8.06Q140.04 9.14 140.04 11.35L140.04 11.35L140.04 13.22Q140.04 15.84 140.20 16.37Q140.35 16.90 140.52 17.23L140.52 17.23Q140.78 17.81 141.55 17.81L141.55 17.81Q142.49 17.81 142.78 16.73L142.78 16.73Q142.99 15.96 142.99 13.27ZM141.50 18.24Q138.50 18.24 136.97 16.70Q135.43 15.17 135.43 12.30Q135.43 9.43 137.08 7.88Q138.72 6.34 141.70 6.34Q144.67 6.34 146.14 7.76Q147.60 9.19 147.60 12.12L147.60 12.12Q147.60 18.24 141.50 18.24L141.50 18.24ZM149.11 18.24L148.82 18.24L148.82 13.94L149.11 13.94Q149.74 16.03 150.79 16.87Q151.85 17.71 153.43 17.71L153.43 17.71Q155.88 17.71 155.88 16.15L155.88 16.15Q155.88 15.48 155.28 15.14L155.28 15.14Q154.34 14.62 152.88 14.33L152.88 14.33Q151.25 13.90 150.14 13.18L150.14 13.18Q148.82 12.31 148.82 10.44Q148.82 8.57 149.98 7.45Q151.13 6.34 153.05 6.34L153.05 6.34Q154.22 6.34 155.47 6.89L155.47 6.89Q155.93 7.08 156.17 7.08Q156.41 7.08 156.58 6.91Q156.74 6.74 156.98 6.29L156.98 6.29L157.25 6.29L157.25 9.96L156.96 9.96Q155.74 6.84 153.17 6.84L153.17 6.84Q152.04 6.84 151.49 7.24Q150.94 7.63 150.94 8.23L150.94 8.23Q150.94 8.59 151.10 8.80Q151.27 9 151.37 9.10Q151.46 9.19 151.68 9.30Q151.90 9.41 152.04 9.47Q152.18 9.53 152.48 9.62Q152.78 9.72 152.93 9.74L152.93 9.74Q154.56 10.15 155.28 10.45Q156 10.75 156.65 11.18L156.65 11.18Q157.97 12.10 157.97 14.12Q157.97 16.15 156.77 17.20Q155.57 18.24 153.48 18.24L153.48 18.24Q151.99 18.24 150.60 17.54L150.60 17.54Q150.31 17.35 150.14 17.35L150.14 17.35Q149.62 17.35 149.11 18.24L149.11 18.24Z" transform="translate(0, 52)"></path></svg>